<svg width="24" height="24" viewBox="0 0 24 24" fill="none" xmlns="http://www.w3.org/2000/svg">
<path fill-rule="evenodd" clip-rule="evenodd" d="M15.4286 9.42857C15.4286 11.3221 13.8936 12.8571 12 12.8571C10.1064 12.8571 8.57143 11.3221 8.57143 9.42857C8.57143 7.53503 10.1064 6 12 6C13.8936 6 15.4286 7.53503 15.4286 9.42857ZM14.5714 9.42857C14.5714 10.8487 13.4201 12 12 12C10.5799 12 9.42858 10.8487 9.42858 9.42857C9.42858 8.00841 10.5799 6.85714 12 6.85714C13.4201 6.85714 14.5714 8.00841 14.5714 9.42857Z" fill="#090A0A"/>
<path d="M12 12.8571C11.3247 12.8571 10.6559 12.9902 10.0319 13.2486C9.40786 13.5071 8.84096 13.8859 8.36342 14.3634C7.88589 14.841 7.50712 15.408 7.24868 16.0319C6.99024 16.6559 6.85715 17.3246 6.85715 18H7.88568C7.88568 17.4597 7.99219 16.9247 8.19894 16.4255C8.4057 15.9264 8.70871 15.4728 9.09082 15.0908C9.47273 14.7087 9.92641 14.4057 10.4255 14.1989C10.9246 13.9921 11.4597 13.8857 12 13.8857C12.5403 13.8857 13.0754 13.9921 13.5745 14.1989C14.0736 14.4057 14.5273 14.7087 14.9092 15.0908C15.2913 15.4728 15.5943 15.9264 15.8011 16.4255C16.0078 16.9247 16.1143 17.4597 16.1143 18H17.1429C17.1429 17.3246 17.0098 16.6559 16.7513 16.0319C16.4929 15.408 16.1141 14.841 15.6366 14.3634C15.159 13.8859 14.5921 13.5071 13.9681 13.2486C13.3441 12.9902 12.6753 12.8571 12 12.8571Z" fill="#090A0A"/>
</svg>
