<svg width="12" height="12" viewBox="0 0 12 12" fill="none" xmlns="http://www.w3.org/2000/svg">
<path fill-rule="evenodd" clip-rule="evenodd" d="M9.57167 3.42857C9.57167 5.32212 8.03673 6.85714 6.1431 6.85714C4.24948 6.85714 2.71453 5.32212 2.71453 3.42857C2.71453 1.53503 4.24948 0 6.1431 0C8.03673 0 9.57167 1.53503 9.57167 3.42857ZM8.71453 3.42857C8.71453 4.84874 7.56316 6 6.1431 6C4.72304 6 3.57167 4.84874 3.57167 3.42857C3.57167 2.00841 4.72304 0.857143 6.1431 0.857143C7.56316 0.857143 8.71453 2.00841 8.71453 3.42857Z" fill="#DCE0E0"/>
<path d="M6.1431 6.85714C5.46781 6.85714 4.799 6.99017 4.17498 7.24862C3.55096 7.50708 2.98406 7.8859 2.50652 8.36345C2.02898 8.84101 1.65022 9.40796 1.39178 10.0319C1.13334 10.6559 1.00024 11.3246 1.00024 12H2.02877C2.02877 11.4597 2.13529 10.9247 2.34204 10.4255C2.54879 9.92636 2.85181 9.47281 3.23392 9.09076C3.61583 8.70872 4.06951 8.40565 4.5686 8.1989C5.0677 7.99214 5.60278 7.88571 6.1431 7.88571C6.68342 7.88571 7.2185 7.99214 7.7176 8.1989C8.21669 8.40565 8.67037 8.70872 9.05228 9.09076C9.43439 9.47281 9.73741 9.92636 9.94416 10.4255C10.1509 10.9247 10.2574 11.4597 10.2574 12H11.286C11.286 11.3246 11.1529 10.6559 10.8944 10.0319C10.636 9.40796 10.2572 8.84101 9.77968 8.36345C9.30214 7.8859 8.73525 7.50708 8.11122 7.24862C7.4872 6.99017 6.81839 6.85714 6.1431 6.85714Z" fill="#DCE0E0"/>
</svg>
